<mxfile host="app.diagrams.net" modified="2023-08-14T14:32:01.423Z" agent="Mozilla/5.0 (Windows NT 10.0; Win64; x64) AppleWebKit/537.36 (KHTML, like Gecko) Chrome/114.0.0.0 Safari/537.36" etag="rX2C-YtsZAMmM7Vn0ED3" version="21.6.8" type="github">
  <diagram name="Page-1" id="PnUXyKtYF6NEwizIRPkU">
    <mxGraphModel dx="794" dy="430" grid="1" gridSize="10" guides="1" tooltips="1" connect="1" arrows="1" fold="1" page="1" pageScale="1" pageWidth="850" pageHeight="1100" math="0" shadow="0">
      <root>
        <mxCell id="0" />
        <mxCell id="1" parent="0" />
        <mxCell id="InDyEbOoRJ5Xt-ui2QHD-1" value="" style="rounded=0;whiteSpace=wrap;html=1;" vertex="1" parent="1">
          <mxGeometry x="130" y="30" width="590" height="320" as="geometry" />
        </mxCell>
        <mxCell id="InDyEbOoRJ5Xt-ui2QHD-2" value="Controller Layer" style="rounded=1;whiteSpace=wrap;html=1;rotation=90;" vertex="1" parent="1">
          <mxGeometry x="80" y="180" width="210" height="70" as="geometry" />
        </mxCell>
        <mxCell id="InDyEbOoRJ5Xt-ui2QHD-3" value="Service Layer" style="rounded=1;whiteSpace=wrap;html=1;" vertex="1" parent="1">
          <mxGeometry x="270" y="110" width="280" height="210" as="geometry" />
        </mxCell>
        <mxCell id="InDyEbOoRJ5Xt-ui2QHD-4" value="DAO Layer" style="rounded=1;whiteSpace=wrap;html=1;" vertex="1" parent="1">
          <mxGeometry x="595" y="110" width="80" height="100" as="geometry" />
        </mxCell>
        <mxCell id="InDyEbOoRJ5Xt-ui2QHD-7" value="" style="shape=flexArrow;endArrow=classic;startArrow=classic;html=1;rounded=0;entryX=0;entryY=0.5;entryDx=0;entryDy=0;" edge="1" parent="1" source="InDyEbOoRJ5Xt-ui2QHD-2" target="InDyEbOoRJ5Xt-ui2QHD-3">
          <mxGeometry width="100" height="100" relative="1" as="geometry">
            <mxPoint x="420" y="280" as="sourcePoint" />
            <mxPoint x="520" y="180" as="targetPoint" />
          </mxGeometry>
        </mxCell>
        <mxCell id="InDyEbOoRJ5Xt-ui2QHD-8" value="" style="shape=flexArrow;endArrow=classic;startArrow=classic;html=1;rounded=0;entryX=0;entryY=0.5;entryDx=0;entryDy=0;exitX=1;exitY=0.25;exitDx=0;exitDy=0;" edge="1" parent="1" source="InDyEbOoRJ5Xt-ui2QHD-3" target="InDyEbOoRJ5Xt-ui2QHD-4">
          <mxGeometry width="100" height="100" relative="1" as="geometry">
            <mxPoint x="230" y="225" as="sourcePoint" />
            <mxPoint x="280" y="225" as="targetPoint" />
            <Array as="points" />
          </mxGeometry>
        </mxCell>
        <mxCell id="InDyEbOoRJ5Xt-ui2QHD-11" value="" style="edgeStyle=orthogonalEdgeStyle;rounded=0;orthogonalLoop=1;jettySize=auto;html=1;" edge="1" parent="1" source="InDyEbOoRJ5Xt-ui2QHD-10" target="InDyEbOoRJ5Xt-ui2QHD-4">
          <mxGeometry relative="1" as="geometry" />
        </mxCell>
        <mxCell id="InDyEbOoRJ5Xt-ui2QHD-10" value="Database" style="shape=datastore;whiteSpace=wrap;html=1;" vertex="1" parent="1">
          <mxGeometry x="350" y="390" width="170" height="90" as="geometry" />
        </mxCell>
      </root>
    </mxGraphModel>
  </diagram>
</mxfile>
